<svg xmlns="http://www.w3.org/2000/svg" xmlns:xlink="http://www.w3.org/1999/xlink" viewBox="0 0 1365.5 379.93"><defs><style>.cls-1,.cls-5{fill:none;}.cls-2{clip-path:url(#clip-path);}.cls-3{fill:#ba0204;}.cls-4{clip-path:url(#clip-path-2);}.cls-5{stroke:#ba0204;stroke-miterlimit:10;stroke-width:3px;}</style><clipPath id="clip-path"><rect class="cls-1" x="-8.68" y="29.29" width="128.93" height="306.35"/></clipPath><clipPath id="clip-path-2"><rect class="cls-1" x="120.25" y="29.29" width="128.93" height="306.35"/></clipPath></defs><g id="Layer_3" data-name="Layer 3"><g id="_Mirror_Repeat_" data-name="&lt;Mirror Repeat&gt;"><g class="cls-2"><path d="M245,315.35a7.28,7.28,0,0,0-1.22,1.9,3.41,3.41,0,0,0,.51,2.32c.66,1.37-.93,3-.44,4.14.58,1.38.9,3,.38,3.87-.63,1.12,0,1.63.09,2.44.17,1.8,0,3.63,0,5.6H1.15v-3.08q0-28.55,0-57.08a6,6,0,0,0-1.3-4.17c1.71-1.12,1.73-3.17,2.55-4.82.12-.26,1.23-70.54,1.35-78.13a4,4,0,0,0-1.48-3.13c1.42-1.87,2.23-10.6,1.54-12.32-.56-1.38-.11-3.16-.11-4.76l-.18-.25c-.56-.84-1.76-1.14-1.8-2.49s1.46-1.27,2.12-2,1.05-1.07,1.78-1.79c0-3.3.5-6.89-.14-10.28S5.23,144.46,5,141c0-.78-.37-1.68.45-2.4.14-.11-.28-.82-.39-1.27-.34-1.3-1.54-2.54-.15-4,.22-.22-.17-1.14-.4-1.68a14.55,14.55,0,0,1-.85-6.18c.13-1.92,0-3.85.05-5.77.06-1.28.33-2.56.52-3.94h4c-.49-2.72,3-25.18,3.16-26.27s1.27-9.91,1-12.24-.82.43,1-1.53a6.75,6.75,0,0,1,1,1.53c.24.38,5.6,37.66,5.88,38.25,1.36.28,3-.06,4.46.24,0,2.67,0,5.12.13,7.55.14,2.27-.36,4.24-.06,6.62-.81.65-.67,1.52-1.41,2.11.17.88,1.41.46,1.21,2.08a12.77,12.77,0,0,1-.46,2.28c-1.29,3.51-.41,25.16-.66,25.88L27,164.71c.61-.61,83.26-86.27,83.62-86.75a1.57,1.57,0,0,0,0-2c-1.41-2.44,6.9-18.25,6.22-19.5s.92-17.89-.54-18.87c1.7,0,2.75-8.32,4-8.32s-.51,8.24.88,8.24c0,1.35.4,2.6-.6,3.65,0,2.47-.28,5,1,7.29.14.26.17.57.3.84,1.4,2.88,1.4,2.88,1.28,6,0,.41,0,.83,0,1.26,1.32.31,2.18.91,1.93,2.38-.19,1.09,0,2.14-.51,3.32-.72,1.58.19,3.37,1,4.92,1.31,2.57.73,5.29.7,8-1,.84-.35,2-.59,3.1,2.24,2,85.76,84.27,87.1,85.47.13-1.78,2.8-5.43,2.85-6.52s-.85-17.45-.7-22.29a2.33,2.33,0,0,0-.31-1.15,2.61,2.61,0,0,1,0-2.62c.51-1-1-4.45-1.44-5.24s.4-1.58.38-2.22c-.07-2.28.68-4.63-.42-6.85-.13-.26.09-2.34-.22-2.73.82-2.2,2.41-2.39,4.45-2.09.48-1.93,1.06-3.83,1.38-5.77.24-1.45,3-24.84,3.24-27.85a2.16,2.16,0,0,0-.8-2.24,1.33,1.33,0,0,1-.26-1.94c.59-1,1.84-1.66,2.61-1.38a9.71,9.71,0,0,1,1.68,1c-.26.94.33,2-.54,3.16a3.12,3.12,0,0,0-.08,2.47c1,3,2.17,12,2.41,13.4.39,2.3,2.82,16.06,2.72,18.16-.06,1.29,4.4,1.3,4.45,2.46.17,3.66,1,7.27.67,11-.13,1.33.33,2.76-1.12,3.75-.25.17-.24,1-.07,1.45a17.19,17.19,0,0,0,1.3,2.28,3.94,3.94,0,0,0-1.45,3.75c.15,2.13.63,11.78.67,14.49s0,5.54,0,8.4l3.21,2.74c0,.31.26,1.29,0,1.52-1.81,1.38-1.26,3.27-1.2,5s-.4,3.5.38,5.28a7.41,7.41,0,0,1,.19,3.43,6.51,6.51,0,0,0,1.43,4.67,7.25,7.25,0,0,0-1.43,4.85c.09,4.38.41,58.27,1.13,58.88a1.25,1.25,0,0,1,.15,1.18c-1.31,2.51-.44,5.18-.55,7.77-.06,1.52,1.41,3,0,4.63a8.18,8.18,0,0,1,.57.66,24.36,24.36,0,0,1,1.89,3.7,15.55,15.55,0,0,0,2.23,3.57,2.52,2.52,0,0,1,.1,2.62.52.52,0,0,1-.22.22c-.9.53-.78,1.4-.78,2.25,0,7.59,1.06,36.44,1.4,39C242.82,312.14,244.15,313.66,245,315.35Z"/><line x1="16.07" y1="85.67" x2="15.94" y2="89.49"/><circle cx="223.25" cy="75" r="2.29"/><circle cx="13.7" cy="77.04" r="2.29"/><path d="M226.72,91.44l1.6,8.25Z"/><rect class="cls-3" x="88.91" y="269.05" width="63.22" height="66.6"/><path class="cls-3" d="M152.13,269.3c0-16.56-26.51-37.11-31.61-37.11S88.91,252.74,88.91,269.3s14.15,30,31.61,30S152.13,285.87,152.13,269.3Z"/></g></g><g id="_Mirror_Repeat_2" data-name="&lt;Mirror Repeat&gt;"><g class="cls-4"><path d="M-4.54,315.35a7.28,7.28,0,0,1,1.22,1.9,3.37,3.37,0,0,1-.52,2.32c-.65,1.37.93,3,.45,4.14-.58,1.38-.9,3-.38,3.87.63,1.12,0,1.63-.09,2.44-.17,1.8-.05,3.63-.05,5.6H239.35v-3.08q0-28.55,0-57.08a6,6,0,0,1,1.3-4.17c-1.71-1.12-1.73-3.17-2.55-4.82-.12-.26-1.23-70.54-1.35-78.13a4,4,0,0,1,1.48-3.13c-1.42-1.87-2.23-10.6-1.54-12.32.56-1.38.11-3.16.11-4.76l.18-.25c.56-.84,1.76-1.14,1.8-2.49s-1.46-1.27-2.12-2c-.51-.55-1-1.07-1.78-1.79,0-3.3-.5-6.89.13-10.28s.28-6.9.48-10.34c.05-.78.37-1.68-.45-2.4-.14-.11.27-.82.39-1.27.34-1.3,1.54-2.54.15-4-.22-.22.17-1.14.4-1.68a14.55,14.55,0,0,0,.85-6.18c-.13-1.92,0-3.85-.05-5.77-.06-1.28-.33-2.56-.52-3.94h-4c.49-2.72-3-25.18-3.16-26.27s-1.27-9.91-1-12.24.82.43-1-1.53a7.16,7.16,0,0,0-1,1.53c-.23.38-5.59,37.66-5.87,38.25-1.36.28-3-.06-4.46.24,0,2.67,0,5.12-.13,7.55-.14,2.27.36,4.24.06,6.62.81.65.67,1.52,1.41,2.11-.17.88-1.41.46-1.21,2.08a12.77,12.77,0,0,0,.46,2.28c1.29,3.51.41,25.16.66,25.88l-3.41,2.41c-.61-.61-83.26-86.27-83.62-86.75a1.57,1.57,0,0,1,0-2c1.41-2.44-6.9-18.25-6.22-19.5s-.92-17.89.54-18.87c-1.7,0-2.75-8.32-4-8.32s.51,8.24-.88,8.24c0,1.35-.4,2.6.6,3.65,0,2.47.28,5-1,7.29-.15.26-.17.57-.3.84-1.4,2.88-1.4,2.88-1.28,6,0,.41,0,.83,0,1.26-1.32.31-2.18.91-1.93,2.38.19,1.09,0,2.14.51,3.32.72,1.58-.19,3.37-1,4.92-1.31,2.57-.73,5.29-.7,8,1,.84.35,2,.59,3.1-2.24,2-85.76,84.27-87.1,85.47-.13-1.78-2.8-5.43-2.85-6.52s.85-17.45.7-22.29a2.43,2.43,0,0,1,.3-1.15,2.59,2.59,0,0,0,0-2.62c-.51-1,1-4.45,1.44-5.24s-.4-1.58-.38-2.22c.07-2.28-.68-4.63.42-6.85.13-.26-.09-2.34.22-2.73-.82-2.2-2.41-2.39-4.45-2.09-.48-1.93-1.06-3.83-1.38-5.77-.24-1.45-3-24.84-3.25-27.85a2.18,2.18,0,0,1,.81-2.24,1.33,1.33,0,0,0,.26-1.94c-.59-1-1.84-1.66-2.61-1.38a9.71,9.71,0,0,0-1.68,1c.26.94-.33,2,.54,3.16A3.12,3.12,0,0,1,16,79.45c-1,3-2.17,12-2.41,13.4-.39,2.3-2.82,16.06-2.72,18.16.06,1.29-4.4,1.3-4.45,2.46-.17,3.66-1,7.27-.67,11,.13,1.33-.33,2.76,1.12,3.75.25.17.24,1,.07,1.45a17.19,17.19,0,0,1-1.3,2.28A3.94,3.94,0,0,1,7,135.66c-.15,2.13-.63,11.78-.67,14.49s0,5.54,0,8.4l-3.21,2.74c0,.31-.26,1.29,0,1.52,1.81,1.38,1.26,3.27,1.2,5s.4,3.5-.38,5.28a7.41,7.41,0,0,0-.19,3.43,6.51,6.51,0,0,1-1.43,4.67A7.25,7.25,0,0,1,3.82,186c-.09,4.38-.41,58.27-1.14,58.88a1.28,1.28,0,0,0-.14,1.18c1.31,2.51.44,5.18.55,7.77.06,1.52-1.41,3,0,4.63a8.18,8.18,0,0,0-.57.66,24.36,24.36,0,0,0-1.89,3.7,15.55,15.55,0,0,1-2.23,3.57A2.52,2.52,0,0,0-1.7,269a.52.52,0,0,0,.22.22c.9.53.78,1.4.78,2.25,0,7.59-1.06,36.44-1.4,39C-2.32,312.14-3.65,313.66-4.54,315.35Z"/><line x1="224.43" y1="85.67" x2="224.56" y2="89.49"/><circle cx="17.25" cy="75" r="2.29"/><circle cx="226.8" cy="77.04" r="2.29"/><path d="M13.78,91.44l-1.6,8.25Z"/><rect class="cls-3" x="88.37" y="269.05" width="63.22" height="66.6" transform="translate(239.97 604.69) rotate(180)"/><path class="cls-3" d="M88.37,269.3c0-16.56,26.51-37.11,31.61-37.11s31.61,20.55,31.61,37.11-14.15,30-31.61,30S88.37,285.87,88.37,269.3Z"/></g></g><path d="M353.64,69.52c23.32,0,41.58,18.59,41.58,48.34s-18.43,48.67-41.58,48.67c-13.86,0-23.83-6.25-29.07-14.53v13.18h-28.9V40.11h28.9V84.23C329.81,75.78,340.12,69.52,353.64,69.52ZM345,94.7C334.2,94.7,324.4,103,324.4,118s9.8,23.32,20.62,23.32c11,0,20.79-8.45,20.79-23.49S356,94.7,345,94.7Z"/><path d="M452.33,166.53c-27.71,0-47.66-18.59-47.66-48.5s19.61-48.51,47.66-48.51c27.55,0,47,18.26,47,47a72.75,72.75,0,0,1-.51,8.45H433.4c1,12.33,8.62,18.08,17.92,18.08,8.11,0,12.67-4.06,15-9.13h30.76C492.56,152.34,475.82,166.53,452.33,166.53ZM433.57,108.9h36.17c0-10.31-8.11-16.22-17.74-16.22C442.53,92.68,435.26,98.42,433.57,108.9Z"/><path d="M550.35,69.52c12.51,0,23.33,5.75,29.07,14.37V40.11h28.9V165.18h-28.9V151.66c-5.24,8.62-15.21,14.87-29.07,14.87-23.15,0-41.57-18.93-41.57-48.67S527.2,69.52,550.35,69.52ZM558.8,94.7c-10.81,0-20.62,8.12-20.62,23.16s9.81,23.49,20.62,23.49c11,0,20.62-8.28,20.62-23.32S569.79,94.7,558.8,94.7Z"/><path d="M629.27,40.11h28.9V165.18h-28.9Z"/><path d="M715,69.52c14,0,24,6.42,29.07,14.71V70.87h28.9v94.31H744V151.83c-5.24,8.28-15.22,14.7-29.24,14.7-23,0-41.41-18.93-41.41-48.67S691.8,69.52,715,69.52Zm8.45,25.18c-10.82,0-20.62,8.12-20.62,23.16s9.8,23.49,20.62,23.49c11,0,20.62-8.28,20.62-23.32S734.39,94.7,723.41,94.7Z"/><path d="M923.84,114c0-12.34-7.1-19.1-18.08-19.1s-18.09,6.76-18.09,19.1v51.21H858.94V114c0-12.34-7.1-19.1-18.08-19.1s-18.08,6.76-18.08,19.1v51.21h-28.9V70.87h28.9V82.7c5.57-7.6,15.21-12.84,27.54-12.84,14.2,0,25.69,6.25,32.11,17.58a38,38,0,0,1,31.78-17.58c23.32,0,38.36,14.87,38.36,40.22v55.1H923.84Z"/><path d="M305.81,255.24h-12V242.56h12V219.24h15.38v23.32h24.17v12.68H321.19v54.59c0,9.13,3.38,12.34,12.84,12.34h11.33v13H331.5c-16.4,0-25.69-6.76-25.69-25.35Z"/><path d="M372.39,210.11h15.38v45.81c6.09-9.81,17.58-15,30.59-15,20.62,0,37,13.19,37,39.72v54.59H440.17V282.79c0-18.93-10.31-28.56-25.86-28.56-15.72,0-26.54,9.8-26.54,29.74v51.21H372.39Z"/><path d="M529.06,336.7c-26.37,0-45.8-18.59-45.8-48,0-29.24,18.76-47.66,45.8-47.66,26.87,0,44.45,18.93,44.45,44.28a83,83,0,0,1-.51,9.3H499c1.18,18.76,14.36,29.07,30.08,29.07,13.86,0,22.65-7.1,26-17.07h16.56C566.92,323.52,552,336.7,529.06,336.7Zm-29.92-54.59h58.48c.17-18.08-13.35-28.05-29.24-28.05C513.34,254.06,500.83,264,499.14,282.11Z"/><path d="M640.43,241c17.24,0,29.07,8.79,34.48,18.42v-16.9h15.54v92.62H674.91V317.94c-5.58,10-17.58,18.76-34.65,18.76-24.67,0-43.77-19.43-43.77-48.17C596.49,259.63,615.59,241,640.43,241Zm3,13.35c-16.9,0-31.27,12.34-31.27,34.14s14.37,34.65,31.27,34.65,31.44-12.67,31.44-34.48C674.91,267.24,660.37,254.39,643.47,254.39Z"/><path d="M728.31,255.24h-12V242.56h12V219.24h15.38v23.32h24.16v12.68H743.69v54.59c0,9.13,3.38,12.34,12.84,12.34h11.32v13H754c-16.4,0-25.69-6.76-25.69-25.35Z"/><path d="M810.27,335.18H794.89V242.56h15.38v15.05c5.24-10.31,15.21-16.74,29.92-16.74v15.89h-4.06c-14.7,0-25.86,6.59-25.86,28.06Z"/><path d="M906.43,336.7c-26.36,0-45.8-18.59-45.8-48,0-29.24,18.76-47.66,45.8-47.66,26.87,0,44.45,18.93,44.45,44.28a83,83,0,0,1-.51,9.3h-74c1.18,18.76,14.36,29.07,30.08,29.07,13.86,0,22.65-7.1,26-17.07H949C944.29,323.52,929.42,336.7,906.43,336.7Zm-29.91-54.59H935c.17-18.08-13.35-28.05-29.23-28.05C890.71,254.06,878.21,264,876.52,282.11Z"/></g><g id="eutc"><path class="cls-3" d="M1316.62,339c-2.63-.48-5.25-1-7.89-1.43-28.85-4.93-48.39-26.94-50-56.11-.8-14.7,1.67-28.59,10-41,9.8-14.67,23.92-22.63,41-25.42,14-2.28,27.82-1.15,40.93,4.6,4.12,1.81,7.81,4.6,11.63,7.05a2.19,2.19,0,0,1,.75,1.95c-2.68,7.46-5.46,14.87-8.31,22.51a45.68,45.68,0,0,0-20.3-10.95c-14.4-3.44-27.61-1.44-38.12,9.9-7.18,7.74-9.25,17.42-8.92,27.67.25,7.6,2.21,14.78,6.82,21,8,10.82,19.22,14.7,32.27,14,11.25-.57,21.15-4.46,29.44-12.59.35.62.69,1.14.93,1.69,2.65,6.16,5.23,12.35,8,18.47a2.53,2.53,0,0,1-.72,3.39c-8.82,8.35-19.46,12.66-31.33,14.3-2.08.29-4.14.66-6.2,1Z"/><path class="cls-3" d="M1336.45,40.64h28.46c0,.58.09,1,.09,1.53,0,24.65,0,49.31-.13,74-.08,9.46-1.77,18.66-6.89,26.89-5.91,9.52-14.64,15.24-25.3,18a70.18,70.18,0,0,1-37.84-.38c-17.33-5.1-27.31-16.84-29.94-34.67a105.55,105.55,0,0,1-1-14.87c-.11-22.5-.05-45-.05-67.49v-2.9h28.66V43.6c0,23,0,46,0,69a51.25,51.25,0,0,0,.91,10.13c2,9.51,9.43,15.25,20,15.74,12.81.6,22-7.35,22.6-20.14.45-9.28.38-18.58.42-27.87C1336.5,73.94,1336.45,57.43,1336.45,40.64Z"/><path class="cls-3" d="M1126,161.28V40.7h78V63.16h-49.57V87.84h46.82V110.4h-46.89v27.86h51.17v23Z"/><path class="cls-3" d="M1152.86,238.3h-31V216h90.31v22.2h-30.84v98.25h-28.42Z"/></g><g id="the_line" data-name="the line"><line class="cls-5" x1="1040" x2="1040" y2="380"/></g></svg>